<?xml version="1.0" standalone="no"?>
<!DOCTYPE svg PUBLIC "-//W3C//DTD SVG 20010904//EN"
 "http://www.w3.org/TR/2001/REC-SVG-20010904/DTD/svg10.dtd">
<svg version="1.0" xmlns="http://www.w3.org/2000/svg"
 width="400.000000pt" height="400.000000pt" viewBox="0 0 400.000000 400.000000"
 preserveAspectRatio="xMidYMid meet">
<metadata>
Created by potrace 1.11, written by Peter Selinger 2001-2013
</metadata>
<g transform="translate(0.000000,400.000000) scale(0.100000,-0.100000)"
fill="#000000" stroke="none">
<path d="M1401 3315 c-135 -30 -266 -118 -325 -219 -49 -84 -58 -136 -66 -381
-8 -261 -21 -320 -87 -415 -73 -103 -170 -148 -335 -157 l-98 -6 0 -102 0
-102 98 -6 c167 -10 263 -55 335 -157 67 -95 79 -154 87 -415 9 -301 25 -354
137 -468 57 -58 162 -112 258 -132 42 -9 126 -15 208 -15 l137 0 0 89 0 89
-137 5 c-164 5 -218 21 -278 82 -68 68 -76 104 -85 380 -7 252 -14 294 -63
375 -54 91 -155 179 -263 231 -35 16 -64 36 -64 44 0 8 20 23 44 33 126 56
248 166 295 266 42 90 51 147 51 345 0 195 8 261 42 329 50 100 125 132 321
139 l137 6 0 88 0 89 -142 -1 c-81 0 -171 -7 -207 -14z"/>
<path d="M2230 3241 l0 -88 138 -6 c194 -7 267 -38 316 -135 37 -74 46 -139
46 -335 0 -247 16 -311 103 -425 47 -62 133 -129 222 -173 36 -17 65 -38 65
-46 0 -7 -20 -22 -45 -33 -115 -49 -237 -154 -288 -247 -45 -83 -57 -158 -57
-363 0 -117 -5 -206 -13 -241 -40 -169 -138 -229 -374 -229 l-113 0 0 -90 0
-90 138 0 c219 0 349 40 453 137 63 59 92 102 120 185 19 54 23 94 29 293 8
261 21 320 87 415 72 102 168 147 336 157 l97 6 0 103 0 104 -71 0 c-147 0
-275 50 -343 133 -80 98 -106 203 -106 442 -1 262 -33 368 -144 473 -108 102
-235 142 -458 142 l-138 0 0 -89z"/>
</g>
</svg>
